<?xml version="1.0" encoding="UTF-8"?><svg id="b" xmlns="http://www.w3.org/2000/svg" viewBox="0 0 1000 1000"><path d="M117.94,703.73c-.35-.13-.74-.09-1.08.08-1.47.78-3.15,1.22-4.93,1.22s-3.44-.44-4.9-1.21c-.33-.18-.73-.21-1.08-.08-3.08,1.12-5.58,3.44-6.93,6.4-.18.4-.13.86.13,1.21,2.89,3.94,7.56,6.5,12.83,6.5s9.93-2.56,12.83-6.5c.26-.35.31-.82.13-1.21-1.36-2.97-3.88-5.31-6.99-6.41Z" style="fill:#fff;"/><circle cx="111.93" cy="694.31" r="7.01" style="fill:#fff;"/><circle cx="347.99" cy="694.31" r="7.01" style="fill:#fff;"/><path d="M354.01,703.73c-.35-.13-.74-.09-1.08.08-1.47.78-3.15,1.22-4.93,1.22s-3.44-.44-4.9-1.21c-.33-.18-.73-.21-1.08-.08-3.08,1.12-5.58,3.44-6.93,6.4-.18.4-.13.86.13,1.21,2.89,3.94,7.56,6.5,12.83,6.5s9.93-2.56,12.83-6.5c.26-.35.31-.82.13-1.21-1.36-2.97-3.88-5.31-6.99-6.41Z" style="fill:#fff;"/><path d="M936.11,308.29h-47.78c-2.54,0-4.59,2.06-4.59,4.59h0c0,2.54,2.06,4.59,4.59,4.59h47.78c8.28,0,15,6.72,15,15v454.81c0,8.28-6.72,15-15,15H63.89c-8.28,0-15-6.72-15-15v-454.81c0-8.28,6.72-15,15-15h481.91c2.54,0,4.59-2.06,4.59-4.59h0c0-2.54-2.06-4.59-4.59-4.59H63.89c-13.36,0-24.19,10.83-24.19,24.19v454.81c0,13.36,10.83,24.19,24.19,24.19h872.22c13.36,0,24.19-10.83,24.19-24.19v-454.81c0-13.36-10.83-24.19-24.19-24.19Z" style="fill:#0070ba;"/><path d="M108.23,501.15h46.8c8.84,0,16-7.16,16-16s-7.16-16-16-16h-46.8c-8.84,0-16,7.16-16,16s7.16,16,16,16Z" style="fill:#66cb92;"/><path d="M179.57,429.08h175.26c8.84,0,16-7.16,16-16s-7.16-16-16-16h-175.26c-8.84,0-16,7.16-16,16h0c0,8.84,7.16,16,16,16Z" style="fill:#0070ba;"/><path d="M201.23,485.15c0,2.76,2.24,5,5,5h190c2.76,0,5-2.24,5-5s-2.24-5-5-5h-190c-2.76,0-5,2.24-5,5Z" style="fill:#cae3f4;"/><path d="M92.67,414.08c.04.12.06.24.11.35.05.12.12.23.18.34.05.09.09.18.14.26.13.19.28.38.44.54l18.08,18.08c1.37,1.37,3.6,1.37,4.97,0,1.37-1.37,1.37-3.6,0-4.98l-12.07-12.07h14.02s0,0,0,0h10.55c1.94,0,3.52-1.58,3.52-3.52s-1.58-3.52-3.52-3.52h-24.58l12.07-12.07c1.37-1.37,1.37-3.6,0-4.98-1.37-1.37-3.6-1.37-4.97,0l-18.08,18.08c-.16.16-.31.35-.44.54-.06.08-.09.17-.14.26-.06.11-.13.22-.18.34-.05.11-.07.23-.11.35-.03.1-.07.2-.09.3-.05.23-.07.46-.07.69s.02.46.07.69c.02.1.06.2.09.3Z" style="fill:#cae3f4;"/><path d="M848.11,640.99H97.23c-2.76,0-5,2.24-5,5s2.24,5,5,5h750.88c2.76,0,5-2.24,5-5h0c0-2.76-2.24-5-5-5Z" style="fill:#0070ba;"/><path d="M97.23,595.5h514.79c2.76,0,5-2.24,5-5s-2.24-5-5-5H97.23c-2.76,0-5,2.24-5,5s2.24,5,5,5Z" style="fill:#0070ba;"/><path d="M653.86,357.69c0,16.79,6.62,32.88,18.41,44.75,11.79,11.87,27.77,18.54,44.44,18.54s32.66-6.67,44.44-18.54c11.79-11.87,18.41-27.97,18.41-44.75s-6.62-32.88-18.41-44.75c-11.79-11.87-27.77-18.54-44.44-18.54s-32.66,6.67-44.44,18.54c-11.79,11.87-18.41,27.97-18.41,44.75ZM707.04,326.04c0-1.94.76-3.79,2.12-5.16,1.36-1.37,3.2-2.14,5.13-2.14s3.77.77,5.13,2.14c1.36,1.37,2.12,3.23,2.12,5.16v29.13l19.61,7.91c1.73.76,3.1,2.16,3.81,3.92.72,1.76.73,3.72.02,5.49-.7,1.76-2.05,3.18-3.78,3.96-1.72.77-3.67.84-5.44.19l-24.17-9.74c-1.34-.54-2.5-1.48-3.31-2.69-.81-1.21-1.25-2.63-1.25-4.09v-34.08Z" style="fill:#0070ba;"/><path d="M589.52,460.46c0,13.81,11.19,25,25,25h205.55c13.81,0,25-11.19,25-25v-205.55c0-13.81-11.19-25-25-25h-205.55c-13.81,0-25,11.19-25,25v205.55ZM769.6,274.63c2.83-2.85,7.43-2.85,10.26,0l20.51,20.65c2.83,2.85,2.83,7.48,0,10.33-2.83,2.85-7.42,2.85-10.26,0l-20.51-20.65c-2.83-2.85-2.83-7.48,0-10.33ZM634.22,295.28l20.51-20.65c2.83-2.85,7.42-2.85,10.26,0,2.83,2.85,2.83,7.48,0,10.33l-20.51,20.65c-2.83,2.85-7.42,2.85-10.26,0-2.83-2.85-2.83-7.48,0-10.33ZM662.01,302.61c14.51-14.61,34.18-22.81,54.7-22.81s40.19,8.21,54.7,22.81c14.51,14.61,22.66,34.42,22.66,55.08s-8.15,40.47-22.66,55.08c-3.16,3.19-6.57,6.07-10.19,8.63l8.96,9.02c2.83,2.85,2.83,7.48,0,10.33-2.83,2.85-7.42,2.85-10.26,0l-9.67-9.74c-.7-.71-1.23-1.52-1.58-2.39-9.95,4.55-20.83,6.96-31.97,6.96s-21.31-2.26-30.99-6.52c-.34.7-.81,1.37-1.39,1.95l-9.67,9.74c-2.83,2.85-7.42,2.85-10.26,0-2.83-2.85-2.83-7.48,0-10.33l8.48-8.54c-3.87-2.68-7.51-5.72-10.88-9.11-14.51-14.61-22.66-34.42-22.66-55.08s8.15-40.47,22.66-55.08Z" style="fill:#0070ba;"/><path d="M644.48,305.61l20.51-20.65c2.83-2.85,2.83-7.48,0-10.33-2.83-2.85-7.42-2.85-10.26,0l-20.51,20.65c-2.83,2.85-2.83,7.48,0,10.33,2.83,2.85,7.42,2.85,10.26,0Z" style="fill:#fff;"/><path d="M790.11,305.61c2.83,2.85,7.42,2.85,10.26,0,2.83-2.85,2.83-7.48,0-10.33l-20.51-20.65c-2.83-2.85-7.42-2.85-10.26,0-2.83,2.85-2.83,7.48,0,10.33l20.51,20.65Z" style="fill:#fff;"/><path d="M707.04,360.12c0,1.46.43,2.88,1.25,4.09.81,1.21,1.96,2.14,3.31,2.69l24.17,9.74c1.77.65,3.72.58,5.44-.19,1.72-.77,3.08-2.19,3.78-3.96.7-1.76.69-3.73-.02-5.49-.71-1.76-2.08-3.16-3.81-3.92l-19.61-7.91v-29.13c0-1.94-.76-3.79-2.12-5.16-1.36-1.37-3.2-2.14-5.13-2.14s-3.77.77-5.13,2.14c-1.36,1.37-2.12,3.23-2.12,5.16v34.08Z" style="fill:#fff;"/><path d="M639.35,357.69c0,20.66,8.15,40.47,22.66,55.08,3.37,3.39,7.01,6.43,10.88,9.11l-8.48,8.54c-2.83,2.85-2.83,7.48,0,10.33,2.83,2.85,7.42,2.85,10.26,0l9.67-9.74c.58-.59,1.04-1.25,1.39-1.95,9.68,4.26,20.22,6.52,30.99,6.52s22.02-2.42,31.97-6.96c.35.87.88,1.68,1.58,2.39l9.67,9.74c2.83,2.85,7.43,2.85,10.26,0,2.83-2.85,2.83-7.48,0-10.33l-8.96-9.02c3.61-2.56,7.02-5.44,10.19-8.63,14.51-14.61,22.66-34.42,22.66-55.08s-8.15-40.47-22.66-55.08c-14.51-14.61-34.18-22.81-54.7-22.81s-40.19,8.21-54.7,22.81c-14.51,14.61-22.66,34.42-22.66,55.08ZM672.27,312.94c11.79-11.87,27.77-18.54,44.44-18.54s32.66,6.67,44.44,18.54c11.79,11.87,18.41,27.97,18.41,44.75s-6.62,32.88-18.41,44.75c-11.79,11.87-27.77,18.54-44.44,18.54s-32.66-6.67-44.44-18.54c-11.79-11.87-18.41-27.97-18.41-44.75s6.62-32.88,18.41-44.75Z" style="fill:#fff;"/><path d="M267.84,696.74h-110c-2.76,0-5,2.24-5,5s2.24,5,5,5h110c2.76,0,5-2.24,5-5s-2.24-5-5-5Z" style="fill:#66cb92;"/><path d="M111.97,681.96c-11.05,0-20,8.95-20,20s8.95,20,20,20,20-8.95,20-20-8.95-20-20-20ZM111.93,687.3c3.87,0,7.01,3.14,7.01,7.01s-3.14,7.01-7.01,7.01-7.01-3.14-7.01-7.01,3.14-7.01,7.01-7.01ZM124.8,711.36c-2.89,3.94-7.56,6.5-12.83,6.5s-9.93-2.56-12.83-6.5c-.26-.35-.31-.82-.13-1.21,1.35-2.96,3.85-5.28,6.93-6.4.35-.13.75-.1,1.08.08,1.47.77,3.13,1.21,4.9,1.21s3.46-.44,4.93-1.22c.33-.18.72-.21,1.08-.08,3.1,1.11,5.62,3.44,6.99,6.41.18.4.13.86-.13,1.21Z" style="fill:#66cb92;"/><path d="M503.91,696.74h-110c-2.76,0-5,2.24-5,5s2.24,5,5,5h110c2.76,0,5-2.24,5-5s-2.24-5-5-5Z" style="fill:#0070ba;"/><path d="M348.03,681.96c-11.05,0-20,8.95-20,20s8.95,20,20,20,20-8.95,20-20-8.95-20-20-20ZM347.99,687.3c3.87,0,7.01,3.14,7.01,7.01s-3.14,7.01-7.01,7.01-7.01-3.14-7.01-7.01,3.14-7.01,7.01-7.01ZM360.86,711.36c-2.89,3.94-7.56,6.5-12.83,6.5s-9.93-2.56-12.83-6.5c-.26-.35-.31-.82-.13-1.21,1.35-2.96,3.85-5.28,6.93-6.4.35-.13.75-.1,1.08.08,1.47.77,3.13,1.21,4.9,1.21s3.46-.44,4.93-1.22c.33-.18.72-.21,1.08-.08,3.1,1.11,5.62,3.44,6.99,6.41.18.4.13.86-.13,1.21Z" style="fill:#0070ba;"/></svg>